<svg id="Capa_1" enable-background="new 0 0 512 512" height="512" viewBox="0 0 512 512" width="512" xmlns="http://www.w3.org/2000/svg"><g><path d="m124 70.875v-25.875c0-8.271 6.729-15 15-15s15 6.729 15 15v25.875h30v-25.875c0-24.813-20.187-45-45-45s-45 20.187-45 45v25.875z" fill="#cccfff"/><path d="m358 70.875v-25.875c0-8.271 6.729-15 15-15s15 6.729 15 15v25.875h30v-25.875c0-24.813-20.187-45-45-45s-45 20.187-45 45v25.875z" fill="#cca9ff"/><path d="m0 140v324h256l25-164-25-160-116-17z" fill="#f2f2fc"/><path d="m512 140-124-24-132 24v324h256z" fill="#e2d9fb"/><path d="m0 65v75h256l13-36-13-39z" fill="#ff6b6b"/><path d="m256 65h256v75h-256z" fill="#ff3d7d"/><path d="m60 185h158v30h-158z" fill="#463b84"/><path d="m60 245h115v30h-115z" fill="#463b84"/><path d="m396 185h56v30h-56z" fill="#5bc980"/><path d="m60 374h30v30h-30z" fill="#b460e7"/><path d="m422 374h30v30h-30z" fill="#a04cd9"/><path d="m224.009 302.991v27.726c0 17.668 14.323 31.991 31.991 31.991l6.398-46.92-6.398-44.788c-17.668 0-31.991 14.323-31.991 31.991z" fill="#ffccbd"/><path d="m287.991 330.717v-27.726c0-17.668-14.323-31.991-31.991-31.991v91.708c17.668 0 31.991-14.323 31.991-31.991z" fill="#ffbda9"/><path d="m196.283 422.425v41.589l59.717 40.521 11.73-84.243-11.73-57.584c-32.981 0-59.717 26.736-59.717 59.717z" fill="#fec258"/><path d="m256 362.708v141.827l59.717-40.522v-41.589c0-32.98-26.736-59.716-59.717-59.716z" fill="#fd996b"/><path d="m256 512h-71.66c-17.668 0-31.991-14.323-31.991-31.991 0-17.668 14.323-31.991 31.991-31.991 21.031 0 40.923 9.554 54.07 25.968l17.59 21.962 6.398 8.587z" fill="#b460e7"/><path d="m256 512h71.66c17.668 0 31.991-14.323 31.991-31.991 0-17.668-14.323-31.991-31.991-31.991-21.031 0-40.923 9.554-54.07 25.968l-17.59 21.962z" fill="#a04cd9"/></g></svg>